<?xml version="1.0" encoding="utf-8"?>
<!-- Generator: Adobe Illustrator 18.1.1, SVG Export Plug-In . SVG Version: 6.00 Build 0)  -->
<svg version="1.1" id="Layer_1" xmlns="http://www.w3.org/2000/svg" xmlns:xlink="http://www.w3.org/1999/xlink" x="0px" y="0px"
	 viewBox="0 0 687 300" enable-background="new 0 0 687 300" xml:space="preserve">
<g>
	<rect x="0" y="0" fill="#DEDDDD" width="687" height="300"/>
	<g>
		<g>
			<g>
				<rect x="19" y="19" fill="#FFFFFF" width="92" height="48.1"/>
				<g>
					<text transform="matrix(1.0006 0 0 1 39.1427 45.8293)" font-family="'NanumGothicBold'" font-size="11">기획 / 관리</text>
				</g>
			</g>
			<g>
				<rect x="19" y="233.8" fill="#FFFFFF" width="92" height="48.1"/>
				<g>
					<text transform="matrix(1.0006 0 0 1 44.288 260.6234)" font-family="'NanumGothicBold'" font-size="11">판매영업</text>
				</g>
			</g>
			<g>
				<rect x="19" y="162.2" fill="#FFFFFF" width="92" height="48.1"/>
				<g>
					<text transform="matrix(1.0006 0 0 1 44.288 189.0254)" font-family="'NanumGothicBold'" font-size="11">생산관리</text>
				</g>
			</g>
			<g>
				<rect x="19" y="90.6" fill="#FFFFFF" width="92" height="48.1"/>
				<g>
					<text transform="matrix(1.0006 0 0 1 44.288 117.4274)" font-family="'NanumGothicBold'" font-size="11">연구개발</text>
				</g>
			</g>
			<polygon fill="#E51E26" points="111.1,30 100.1,19 111.1,19 			"/>
			<polygon fill="#00A79D" points="111.1,101.6 100.1,90.6 111.1,90.6 			"/>
			<polygon fill="#F15A29" points="111.1,173.2 100.1,162.2 111.1,162.2 			"/>
			<polygon fill="#00AEEF" points="111.1,244.8 100.1,233.8 111.1,233.8 			"/>
		</g>
		<g>
			<g>
				<rect x="408.1" y="19" fill="#FFFFFF" width="259.9" height="48.1"/>
				<g>
					<text transform="matrix(1.0006 0 0 1 437.0242 38.9902)" font-family="'NanumGothic'" font-size="11">고객분석을 통해 제품 아이디어 구상</text>
				</g>
				<g>
					<text transform="matrix(1.0006 0 0 1 437.0242 55.4662)" font-family="'NanumGothic'" font-size="11">제품의 핵심 경쟁력 기획 및 디자인</text>
				</g>
			</g>
			<g>
				<rect x="408.1" y="90.6" fill="#FFFFFF" width="259.9" height="48.1"/>
				<g>
					<text transform="matrix(1.0006 0 0 1 437.0242 110.5882)" font-family="'NanumGothic'" font-size="11">컨셉기획에 맞는 제품의 가치를 기술개발로 구현</text>
				</g>
				<g>
					<text transform="matrix(1.0006 0 0 1 437.0242 127.0643)" font-family="'NanumGothic'" font-size="11">개발된 가치를 실현 시킬 수 있는 파트너 재휴</text>
				</g>
			</g>
			<g>
				<rect x="408.1" y="162.2" fill="#FFFFFF" width="259.9" height="48.1"/>
				<g>
					<text transform="matrix(1.0006 0 0 1 437.0242 182.1863)" font-family="'NanumGothic'" font-size="11">기획된 기능이 구현되는 제품의 개발</text>
				</g>
				<g>
					<text transform="matrix(1.0006 0 0 1 437.0242 198.6623)" font-family="'NanumGothic'" font-size="11">최적화된 비용구조로 생산하는 프로세스의 구축</text>
				</g>
			</g>
			<g>
				<rect x="408.1" y="233.8" fill="#FFFFFF" width="259.9" height="48.1"/>
				<g>
					<text transform="matrix(1.0006 0 0 1 437.0242 253.7843)" font-family="'NanumGothic'" font-size="11">개발된 가치에 맞는 고객에게 효과적으로 설명</text>
				</g>
				<g>
					<text transform="matrix(1.0006 0 0 1 437.0242 270.2603)" font-family="'NanumGothic'" font-size="11">개발된 제품을 고객에게 효율적으로 전달 / 관리</text>
				</g>
			</g>
			<g>
				<rect x="427.7" y="32.5" fill="#E51E26" width="5.3" height="5.3"/>
				<rect x="427.7" y="48.9" fill="#E51E26" width="5.3" height="5.3"/>
			</g>
			<g>
				<rect x="427.7" y="104.4" fill="#00A79D" width="5.3" height="5.3"/>
				<rect x="427.7" y="120.7" fill="#00A79D" width="5.3" height="5.3"/>
			</g>
			<g>
				<rect x="427.7" y="176.2" fill="#F15A29" width="5.3" height="5.3"/>
				<rect x="427.7" y="192.6" fill="#F15A29" width="5.3" height="5.3"/>
			</g>
			<g>
				<rect x="427.7" y="248" fill="#00AEEF" width="5.3" height="5.3"/>
				<rect x="427.7" y="264.4" fill="#00AEEF" width="5.3" height="5.3"/>
			</g>
		</g>
		<g>
			<g>
				<g>
					<rect x="145.8" y="19" fill="#FFFFFF" width="92" height="48.1"/>
					<g>
						<text transform="matrix(1.0006 0 0 1 171.1468 45.8293)" font-family="'NanumGothic'" font-size="11">고객분석</text>
					</g>
				</g>
				<g>
					<rect x="145.8" y="233.8" fill="#FFFFFF" width="92" height="48.1"/>
					<g>
						<text transform="matrix(1.0006 0 0 1 164.433 260.6234)" font-family="'NanumGothic'" font-size="11">마케팅 영업</text>
					</g>
				</g>
				<g>
					<rect x="145.8" y="162.2" fill="#FFFFFF" width="92" height="48.1"/>
					<g>
						<text transform="matrix(1.0006 0 0 1 164.433 189.0254)" font-family="'NanumGothic'" font-size="11">시제품 개발</text>
					</g>
				</g>
				<g>
					<rect x="145.8" y="90.6" fill="#FFFFFF" width="92" height="48.1"/>
					<g>
						<text transform="matrix(1.0006 0 0 1 171.1468 117.4274)" font-family="'NanumGothic'" font-size="11">기술개발</text>
					</g>
				</g>
				<polygon fill="#E51E26" points="237.8,30 226.9,19 237.8,19 				"/>
				<polygon fill="#00A79D" points="237.8,101.6 226.9,90.6 237.8,90.6 				"/>
				<polygon fill="#F15A29" points="237.8,173.2 226.9,162.2 237.8,162.2 				"/>
				<polygon fill="#00AEEF" points="237.8,244.8 226.9,233.8 237.8,233.8 				"/>
			</g>
			<g>
				<g>
					<rect x="281.1" y="19" fill="#FFFFFF" width="92" height="48.1"/>
					<g>
						<text transform="matrix(1.0006 0 0 1 301.2681 45.8293)" font-family="'NanumGothic'" font-size="11">컨셉디자인</text>
					</g>
				</g>
				<g>
					<rect x="281.1" y="233.8" fill="#FFFFFF" width="92" height="48.1"/>
					<g>
						<text transform="matrix(1.0006 0 0 1 306.4409 254.9541)"><tspan x="0" y="0" font-family="'NanumGothic'" font-size="11">고객관리</tspan><tspan x="-11.2" y="13.2" font-family="'NanumGothic'" font-size="11">/물류(패키징)</tspan></text>
					</g>
				</g>
				<g>
					<rect x="281.1" y="162.2" fill="#FFFFFF" width="92" height="48.1"/>
					<g>
						<text transform="matrix(1.0006 0 0 1 296.0952 189.0254)" font-family="'NanumGothic'" font-size="11">생산시설구축</text>
					</g>
				</g>
				<g>
					<rect x="281.1" y="90.6" fill="#FFFFFF" width="92" height="48.1"/>
					<g>
						<text transform="matrix(1.0006 0 0 1 299.7271 117.4274)" font-family="'NanumGothic'" font-size="11">협력사 제휴</text>
					</g>
				</g>
				<polygon fill="#E51E26" points="373.1,30 362.2,19 373.1,19 				"/>
				<polygon fill="#00A79D" points="373.1,101.6 362.2,90.6 373.1,90.6 				"/>
				<polygon fill="#F15A29" points="373.1,173.2 362.2,162.2 373.1,162.2 				"/>
				<polygon fill="#00AEEF" points="373.1,244.8 362.2,233.8 373.1,233.8 				"/>
			</g>
			<g>
				<g>
					<g>
						
							<line fill="none" stroke="#6D6E71" stroke-linecap="round" stroke-miterlimit="10" x1="237.8" y1="43.1" x2="238.6" y2="43.1"/>
						
							<line fill="none" stroke="#6D6E71" stroke-linecap="round" stroke-miterlimit="10" stroke-dasharray="1.4435,1.9246" x1="240.5" y1="43.1" x2="273.2" y2="43.1"/>
						<line fill="none" stroke="#6D6E71" stroke-linecap="round" stroke-miterlimit="10" x1="274.2" y1="43.1" x2="275" y2="43.1"/>
						<g>
							<polygon fill="#6D6E71" points="273.8,47 280.7,43.1 273.8,39.1 							"/>
						</g>
					</g>
				</g>
				<circle fill="#FFFFFF" stroke="#6D6E71" stroke-miterlimit="10" cx="237.8" cy="43.1" r="2.8"/>
			</g>
			<g>
				<g>
					<g>
						<line fill="none" stroke="#6D6E71" stroke-linecap="round" stroke-miterlimit="10" x1="327.1" y1="67" x2="327.1" y2="67.8"/>
						
							<line fill="none" stroke="#6D6E71" stroke-linecap="round" stroke-miterlimit="10" stroke-dasharray="1.3148,1.753" x1="327.1" y1="69.5" x2="327.1" y2="77.9"/>
						<polyline fill="none" stroke="#6D6E71" stroke-linecap="round" stroke-miterlimit="10" points="327.1,78.7 327.1,79.5 
							326.4,79.5 						"/>
						
							<line fill="none" stroke="#6D6E71" stroke-linecap="round" stroke-miterlimit="10" stroke-dasharray="1.4866,1.9821" x1="324.4" y1="79.5" x2="193.6" y2="79.5"/>
						<polyline fill="none" stroke="#6D6E71" stroke-linecap="round" stroke-miterlimit="10" points="192.6,79.5 191.8,79.5 
							191.8,80.2 						"/>
						
							<line fill="none" stroke="#6D6E71" stroke-linecap="round" stroke-miterlimit="10" stroke-dasharray="1.062,1.416" x1="191.8" y1="81.6" x2="191.8" y2="83.4"/>
						
							<line fill="none" stroke="#6D6E71" stroke-linecap="round" stroke-miterlimit="10" x1="191.8" y1="84.1" x2="191.8" y2="84.9"/>
						<g>
							<polygon fill="#6D6E71" points="187.8,83.7 191.8,90.6 195.8,83.7 							"/>
						</g>
					</g>
				</g>
				<circle fill="#FFFFFF" stroke="#6D6E71" stroke-miterlimit="10" cx="327.1" cy="67" r="2.8"/>
			</g>
			<g>
				<g>
					<g>
						
							<line fill="none" stroke="#6D6E71" stroke-linecap="round" stroke-miterlimit="10" x1="327.1" y1="138.6" x2="327.1" y2="139.4"/>
						
							<line fill="none" stroke="#6D6E71" stroke-linecap="round" stroke-miterlimit="10" stroke-dasharray="1.3148,1.753" x1="327.1" y1="141.1" x2="327.1" y2="149.5"/>
						<polyline fill="none" stroke="#6D6E71" stroke-linecap="round" stroke-miterlimit="10" points="327.1,150.3 327.1,151.1 
							326.4,151.1 						"/>
						
							<line fill="none" stroke="#6D6E71" stroke-linecap="round" stroke-miterlimit="10" stroke-dasharray="1.4866,1.9821" x1="324.4" y1="151.1" x2="193.6" y2="151.1"/>
						<polyline fill="none" stroke="#6D6E71" stroke-linecap="round" stroke-miterlimit="10" points="192.6,151.1 191.8,151.1 
							191.8,151.8 						"/>
						
							<line fill="none" stroke="#6D6E71" stroke-linecap="round" stroke-miterlimit="10" stroke-dasharray="1.062,1.416" x1="191.8" y1="153.2" x2="191.8" y2="155"/>
						
							<line fill="none" stroke="#6D6E71" stroke-linecap="round" stroke-miterlimit="10" x1="191.8" y1="155.7" x2="191.8" y2="156.5"/>
						<g>
							<polygon fill="#6D6E71" points="187.8,155.3 191.8,162.2 195.8,155.3 							"/>
						</g>
					</g>
				</g>
				<circle fill="#FFFFFF" stroke="#6D6E71" stroke-miterlimit="10" cx="327.1" cy="138.6" r="2.8"/>
			</g>
			<g>
				<g>
					<g>
						
							<line fill="none" stroke="#6D6E71" stroke-linecap="round" stroke-miterlimit="10" x1="327.1" y1="210.2" x2="327.1" y2="211"/>
						
							<line fill="none" stroke="#6D6E71" stroke-linecap="round" stroke-miterlimit="10" stroke-dasharray="1.3148,1.753" x1="327.1" y1="212.7" x2="327.1" y2="221"/>
						<polyline fill="none" stroke="#6D6E71" stroke-linecap="round" stroke-miterlimit="10" points="327.1,221.9 327.1,222.7 
							326.4,222.7 						"/>
						
							<line fill="none" stroke="#6D6E71" stroke-linecap="round" stroke-miterlimit="10" stroke-dasharray="1.4866,1.9821" x1="324.4" y1="222.7" x2="193.6" y2="222.7"/>
						<polyline fill="none" stroke="#6D6E71" stroke-linecap="round" stroke-miterlimit="10" points="192.6,222.7 191.8,222.7 
							191.8,223.4 						"/>
						
							<line fill="none" stroke="#6D6E71" stroke-linecap="round" stroke-miterlimit="10" stroke-dasharray="1.062,1.416" x1="191.8" y1="224.8" x2="191.8" y2="226.6"/>
						
							<line fill="none" stroke="#6D6E71" stroke-linecap="round" stroke-miterlimit="10" x1="191.8" y1="227.3" x2="191.8" y2="228.1"/>
						<g>
							<polygon fill="#6D6E71" points="187.8,226.9 191.8,233.8 195.8,226.9 							"/>
						</g>
					</g>
				</g>
				<circle fill="#FFFFFF" stroke="#6D6E71" stroke-miterlimit="10" cx="327.1" cy="210.2" r="2.8"/>
			</g>
			<g>
				<g>
					<g>
						
							<line fill="none" stroke="#6D6E71" stroke-linecap="round" stroke-miterlimit="10" x1="237.8" y1="114.7" x2="238.6" y2="114.7"/>
						
							<line fill="none" stroke="#6D6E71" stroke-linecap="round" stroke-miterlimit="10" stroke-dasharray="1.4435,1.9246" x1="240.5" y1="114.7" x2="273.2" y2="114.7"/>
						
							<line fill="none" stroke="#6D6E71" stroke-linecap="round" stroke-miterlimit="10" x1="274.2" y1="114.7" x2="275" y2="114.7"/>
						<g>
							<polygon fill="#6D6E71" points="273.8,118.6 280.7,114.7 273.8,110.7 							"/>
						</g>
					</g>
				</g>
				<circle fill="#FFFFFF" stroke="#6D6E71" stroke-miterlimit="10" cx="237.8" cy="114.7" r="2.8"/>
			</g>
			<g>
				<g>
					<g>
						
							<line fill="none" stroke="#6D6E71" stroke-linecap="round" stroke-miterlimit="10" x1="237.8" y1="186.3" x2="238.6" y2="186.3"/>
						
							<line fill="none" stroke="#6D6E71" stroke-linecap="round" stroke-miterlimit="10" stroke-dasharray="1.4435,1.9246" x1="240.5" y1="186.3" x2="273.2" y2="186.3"/>
						
							<line fill="none" stroke="#6D6E71" stroke-linecap="round" stroke-miterlimit="10" x1="274.2" y1="186.3" x2="275" y2="186.3"/>
						<g>
							<polygon fill="#6D6E71" points="273.8,190.2 280.7,186.3 273.8,182.3 							"/>
						</g>
					</g>
				</g>
				<circle fill="#FFFFFF" stroke="#6D6E71" stroke-miterlimit="10" cx="237.8" cy="186.3" r="2.8"/>
			</g>
			<g>
				<g>
					<g>
						
							<line fill="none" stroke="#6D6E71" stroke-linecap="round" stroke-miterlimit="10" x1="237.8" y1="257.8" x2="238.6" y2="257.8"/>
						
							<line fill="none" stroke="#6D6E71" stroke-linecap="round" stroke-miterlimit="10" stroke-dasharray="1.4435,1.9246" x1="240.5" y1="257.8" x2="273.2" y2="257.8"/>
						
							<line fill="none" stroke="#6D6E71" stroke-linecap="round" stroke-miterlimit="10" x1="274.2" y1="257.8" x2="275" y2="257.8"/>
						<g>
							<polygon fill="#6D6E71" points="273.8,261.8 280.7,257.8 273.8,253.9 							"/>
						</g>
					</g>
				</g>
				<circle fill="#FFFFFF" stroke="#6D6E71" stroke-miterlimit="10" cx="237.8" cy="257.8" r="2.8"/>
			</g>
		</g>
	</g>
</g>
</svg>
